<?xml version="1.0" encoding="UTF-8"?>
<svg xmlns="http://www.w3.org/2000/svg"
     width="512" height="512" viewBox="0 0 512 512" role="img" aria-label="Stranger Strings icon">
  <defs>
    <linearGradient id="neonA" x1="0" x2="1" y1="0" y2="1">
      <stop offset="0" stop-color="#7C3AED"/>
      <stop offset="0.5" stop-color="#06B6D4"/>
      <stop offset="1" stop-color="#10B981"/>
    </linearGradient>
    <linearGradient id="neonB" x1="0" x2="1">
      <stop offset="0" stop-color="#06B6D4"/>
      <stop offset="1" stop-color="#7C3AED"/>
    </linearGradient>
    <filter id="glow" x="-50%" y="-50%" width="200%" height="200%">
      <feGaussianBlur stdDeviation="4" result="b"/>
      <feMerge>
        <feMergeNode in="b"/>
        <feMergeNode in="SourceGraphic"/>
      </feMerge>
    </filter>
    <clipPath id="badgeClip">
      <rect x="36" y="36" width="440" height="440" rx="48" ry="48"/>
    </clipPath>
  </defs>

  <!-- dark background -->
  <rect width="100%" height="100%" fill="#081226"/>

  <!-- rounded panel -->
  <g filter="url(#glow)">
    <rect x="36" y="36" width="440" height="440" rx="48" ry="48" fill="url(#neonB)" opacity="0.12"/>
    <rect x="36" y="36" width="440" height="440" rx="48" ry="48" fill="none" stroke="rgba(255,255,255,0.06)" stroke-width="1"/>
  </g>

  <!-- glowing string path -->
  <g clip-path="url(#badgeClip)">
    <path d="M 50 360 C 120 180, 220 100, 320 160 C 420 220, 460 180, 520 240"
          fill="none" stroke="url(#neonA)" stroke-width="8" stroke-linecap="round" stroke-linejoin="round" filter="url(#glow)"/>
    <path d="M 50 360 C 120 180, 220 100, 320 160 C 420 220, 460 180, 520 240"
          fill="none" stroke="#ffffff" stroke-opacity="0.12" stroke-width="1.25" stroke-linecap="round"/>
  </g>

  <!-- nodes -->
  <g filter="url(#glow)">
    <circle cx="70" cy="340" r="10" fill="#061124" stroke="url(#neonA)" stroke-width="2"/>
    <circle cx="160" cy="160" r="12" fill="#061124" stroke="url(#neonB)" stroke-width="2.5"/>
    <circle cx="250" cy="180" r="8" fill="#061124" stroke="url(#neonA)" stroke-width="2"/>
    <circle cx="340" cy="160" r="7" fill="#061124" stroke="url(#neonB)" stroke-width="1.8"/>
    <circle cx="440" cy="220" r="11" fill="#061124" stroke="url(#neonA)" stroke-width="2.2"/>
  </g>

  <!-- 'SS' techy monogram -->
  <g transform="translate(140,200) scale(0.8)">
    <path d="M50 20 C30 20, 10 46, 25 64 C40 82, 75 78, 90 96 C105 114, 85 140, 60 140"
          fill="none" stroke="url(#neonA)" stroke-width="10" stroke-linecap="round" stroke-linejoin="round" filter="url(#glow)"/>
    <path d="M140 20 C160 20, 180 46, 165 64 C150 82, 115 78, 100 96 C85 114, 105 140, 130 140"
          fill="none" stroke="url(#neonB)" stroke-width="10" stroke-linecap="round" stroke-linejoin="round" filter="url(#glow)"/>
  </g>
</svg>
